# Blender v2.78 (sub 0) OBJ File: 'fish.blend'
# www.blender.org
mtllib fish.mtl
o Sphere
v 0.156635 1.402947 -1.900033
v 0.174340 1.467798 -1.849675
v 0.154218 1.608331 -1.681648
v 0.132219 1.591906 -1.748174
v 0.123955 1.128959 -1.589737
v 0.128282 1.335357 -1.908768
v 0.137986 1.528788 -1.840807
v 0.122138 1.655278 -1.526852
v 0.122186 1.109249 -1.407126
v 0.159017 1.245727 -1.819612
v 0.132526 1.219038 -1.807298
v 0.118979 1.261057 -1.861440
v 0.158524 1.151591 -1.624465
v 0.148901 1.180751 -1.729187
v 0.185452 1.373872 -1.851152
v 0.190683 1.551104 -1.710613
v 0.180009 1.516549 -1.794209
v 0.147444 1.124942 -1.526651
v 0.189300 1.228979 -1.727682
v 0.150877 1.634024 -1.600293
v 0.177718 1.609938 -1.610572
v 0.144777 1.652601 -1.505753
v 0.217950 1.292337 -1.693604
v 0.213075 1.442194 -1.749843
v 0.230925 1.454280 -1.641440
v 0.201196 1.584780 -1.566015
v 0.183550 1.185428 -1.649967
v 0.178145 1.149346 -1.534357
v 0.214702 1.373307 -1.759170
v 0.239893 1.384077 -1.597415
v 0.212065 1.541392 -1.624298
v 0.212768 1.492465 -1.706147
v 0.222639 1.219863 -1.438479
v 0.230122 1.269489 -1.563654
v 0.242376 1.456614 -1.503691
v 0.180209 1.632563 -1.429776
v 0.204237 1.597450 -1.386982
v 0.181532 1.145029 -1.448570
v 0.238100 1.320031 -1.574996
v 0.248243 1.385208 -1.465947
v 0.229179 1.516629 -1.537333
v 0.222198 1.553471 -1.459073
v 0.158983 1.123975 -1.412826
v 0.185774 1.150956 -1.342998
v 0.245196 1.320031 -1.383519
v 0.247159 1.373953 -1.332775
v 0.220168 1.554099 -1.315711
v 0.238072 1.499337 -1.385902
v 0.236748 1.269489 -1.385347
v 0.246118 1.439085 -1.354977
v 0.241577 1.400617 -1.234982
v 0.230402 1.360554 -1.146166
v 0.206933 1.369232 -1.026020
v 0.216695 1.537493 -1.209470
v 0.217391 1.494584 -1.135730
v 0.155667 1.650531 -1.345640
v 0.149175 1.123976 -1.306482
v 0.200772 1.205613 -1.186544
v 0.223067 1.250687 -1.233452
v 0.218005 1.289326 -1.125256
v 0.212155 1.426328 -1.055870
v 0.173446 1.629412 -1.279762
v 0.192741 1.585465 -1.191931
v 0.171391 1.145029 -1.267493
v 0.173746 1.223579 -1.051712
v 0.169668 1.602278 -1.153555
v 0.153243 1.634370 -1.222157
v 0.154368 1.145029 -1.202315
v 0.180197 1.184640 -1.154846
v 0.203865 1.334867 -1.029112
v 0.164916 1.553614 -1.038051
v 0.074251 1.330309 -0.932770
v 0.141813 1.602262 -1.100020
v 0.132452 1.145029 -1.168354
v 0.150681 1.199545 -1.049348
v 0.152754 1.491785 -0.937124
v 0.127827 1.555316 -1.002959
v 0.135043 1.650531 -1.268425
v 0.124382 1.121259 -1.277230
v 0.123791 1.213225 -1.012460
v 0.109921 1.168412 -1.101729
v 0.114056 1.134655 -1.206527
v 0.168901 1.453387 -0.935591
v 0.101598 1.212246 -1.021494
v 0.075625 1.452960 -0.935022
v 0.124464 1.637121 -1.191871
v 0.109284 1.596881 -1.080692
v 0.053656 1.551710 -1.105812
v 0.081052 1.531688 -1.002084
v 0.049038 1.491713 -1.037797
v 0.106914 1.650531 -1.272601
v 0.097198 1.123976 -1.298765
v 0.064338 1.234345 -1.053196
v 0.041583 1.422020 -1.016475
v 0.090569 1.629412 -1.200943
v 0.073417 1.593451 -1.131271
v 0.076146 1.172844 -1.147973
v 0.084172 1.137947 -1.250626
v 0.042662 1.347082 -1.017203
v 0.048574 1.291732 -1.031347
v 0.040163 1.235921 -1.138326
v 0.015919 1.392239 -1.128524
v 0.072983 1.629380 -1.267747
v 0.039878 1.580969 -1.257757
v 0.056081 1.193547 -1.162139
v 0.051526 1.164508 -1.307844
v 0.022487 1.317418 -1.118229
v 0.026635 1.540907 -1.229059
v 0.022890 1.481892 -1.139843
v 0.045059 1.601778 -1.336185
v 0.080165 1.645960 -1.351604
v 0.077367 1.129066 -1.385680
v 0.004586 1.330844 -1.245587
v -0.004165 1.400637 -1.353219
v 0.016320 1.536743 -1.371850
v 0.015209 1.267451 -1.243621
v 0.003631 1.413952 -1.236057
v 0.063529 1.145029 -1.460771
v 0.029837 1.198540 -1.435990
v -0.000737 1.320031 -1.431219
v 0.019760 1.543748 -1.481390
v 0.024185 1.535812 -1.575806
v 0.015280 1.257877 -1.537333
v 0.009341 1.262333 -1.402716
v 0.032607 1.217218 -1.580051
v -0.003323 1.400628 -1.482329
v 0.003631 1.413952 -1.578681
v 0.062795 1.629412 -1.446267
v 0.040261 1.593451 -1.483472
v 0.087609 1.649564 -1.478680
v 0.095284 1.123975 -1.508256
v 0.035871 1.255188 -1.690979
v 0.012429 1.405504 -1.661793
v 0.066790 1.622477 -1.545762
v 0.056797 1.588769 -1.633135
v 0.054119 1.173073 -1.574419
v 0.083340 1.137947 -1.560758
v 0.025481 1.346959 -1.728048
v 0.050215 1.405546 -1.828227
v 0.032380 1.416527 -1.763785
v 0.078180 1.487710 -1.848621
v 0.088002 1.629476 -1.606981
v 0.095520 1.597450 -1.720535
v 0.066694 1.347441 -1.861554
v 0.068494 1.541506 -1.770135
v 0.043929 1.540208 -1.692997
v 0.112007 1.145029 -1.646384
v 0.091566 1.360554 -1.900353
v 0.099059 1.292243 -1.876857
v 0.099488 1.554099 -1.802102
v 0.109415 1.650531 -1.546313
v 0.077755 1.254001 -1.818632
v 0.085746 1.427547 -1.890344
v 0.118664 1.402341 -1.918093
v 0.117198 1.636429 -1.626066
v 0.141289 1.213418 -0.837442
v 0.136522 1.195137 -0.793166
v 0.099568 1.250874 -0.777333
v 0.172145 1.377790 -0.926477
v 0.149192 1.350737 -0.777856
v 0.145564 1.216165 -0.805733
v 0.142197 1.558227 -0.842141
v 0.140021 1.576305 -0.797389
v 0.103819 1.496603 -0.932135
v 0.168834 1.321546 -0.935022
v 0.140640 1.277904 -0.932135
v 0.091360 1.282745 -0.936925
v 0.119473 1.277496 -0.925061
v 0.132366 1.503465 -0.717631
v 0.122139 1.495472 -0.704915
v 0.131128 1.223474 -0.727316
v 0.131730 1.347451 -0.707259
v 0.112093 1.271041 -0.717631
v 0.122320 1.279034 -0.704915
v 0.113330 1.551032 -0.727316
v 0.113848 1.419187 -0.703909
v 0.109096 1.581507 -0.789018
v 0.170813 1.425971 -0.927277
v 0.144890 1.523632 -0.777333
v 0.102262 1.216279 -0.842141
v 0.110931 1.192357 -0.789865
v 0.072314 1.396716 -0.926477
v 0.158576 1.305428 -1.872865
v 0.138684 1.471498 -1.888376
v 0.212445 1.217953 -1.580092
v 0.159885 1.648106 -1.474890
v 0.216526 1.209483 -1.324106
v 0.006430 1.480417 -1.289791
v 0.041921 1.480411 -1.763618
v 0.103170 1.561089 -0.837442
v 0.126825 1.190991 -0.749961
v 0.117634 1.583515 -0.749961
v 0.099382 1.215977 -0.817060
v 0.098895 1.558341 -0.805733
v 0.110081 1.490881 -1.878250
v 0.111617 1.194126 -1.768813
v 0.160623 1.573234 -1.749243
v 0.122256 1.664933 -1.400651
v 0.193496 1.294089 -1.793570
v 0.206737 1.184551 -1.454400
v 0.234154 1.453314 -1.195557
v 0.235709 1.309693 -1.231751
v 0.194770 1.503184 -1.045293
v 0.195421 1.282793 -1.037797
v 0.162692 1.478449 -0.939603
v 0.124986 1.497010 -0.925061
v 0.134197 1.575494 -0.752432
v 0.081767 1.296057 -0.939603
v 0.029959 1.212373 -1.276450
v 0.003620 1.479943 -1.453774
v 0.014209 1.480411 -1.612634
v 0.009098 1.322324 -1.608253
v 0.041887 1.310019 -1.776200
v 0.056909 1.212373 -1.700851
v 0.083545 1.180980 -1.709443
v 0.160466 1.290599 -0.939757
v 0.083992 1.483908 -0.939757
v 0.095267 1.423769 -0.777857
v 0.110262 1.199012 -0.752432
vn 0.4376 0.8773 -0.1971
vn 0.4798 0.8281 -0.2898
vn 0.1567 0.8795 -0.4494
vn 0.0270 -0.9774 -0.2097
vn -0.1633 -0.9412 -0.2957
vn 0.4355 -0.8203 -0.3706
vn 0.6726 -0.3811 -0.6343
vn -0.0268 -0.6872 -0.7260
vn 0.1450 -0.3182 -0.9368
vn 0.6720 0.0728 -0.7370
vn 0.3150 0.7080 -0.6320
vn 0.6428 0.6668 -0.3771
vn 0.8219 0.4251 -0.3791
vn 0.8286 0.2966 -0.4747
vn 0.0096 0.9925 -0.1221
vn -0.0517 0.9605 -0.2732
vn -0.2820 0.9473 -0.1519
vn 0.3829 -0.9170 -0.1113
vn -0.0149 -0.9999 -0.0028
vn 0.6475 -0.5692 -0.5067
vn 0.2086 -0.7976 -0.5660
vn 0.7403 -0.6634 -0.1086
vn 0.5347 -0.8125 -0.2323
vn 0.3572 0.9276 -0.1090
vn 0.5546 0.8296 -0.0640
vn 0.9050 -0.2676 -0.3306
vn 0.8448 -0.4611 -0.2712
vn 0.9036 -0.0471 -0.4257
vn 0.9587 0.1365 -0.2493
vn 0.7426 0.6460 -0.1766
vn 0.5334 -0.8458 -0.0033
vn 0.9125 -0.3923 -0.1153
vn 0.7954 -0.5705 -0.2047
vn 0.9619 -0.2065 -0.1789
vn 0.9696 -0.0275 -0.2432
vn 0.9825 0.1303 -0.1327
vn 0.7414 0.6707 -0.0190
vn 0.8534 0.4616 -0.2420
vn 0.8742 0.4753 -0.0989
vn 0.9288 0.3418 -0.1430
vn 0.9632 0.2574 -0.0767
vn 0.9690 -0.2325 -0.0829
vn 0.9434 -0.3310 -0.0202
vn 0.9940 -0.0060 -0.1090
vn 0.9912 0.1220 -0.0503
vn 0.9775 0.2102 0.0141
vn 0.9953 0.0920 0.0291
vn 0.9995 -0.0079 -0.0307
vn 0.7475 -0.6631 -0.0384
vn 0.8824 -0.4691 -0.0360
vn 0.9936 -0.1121 0.0098
vn 0.9889 -0.1179 -0.0900
vn 0.9379 0.3453 -0.0336
vn 0.8721 0.4888 0.0207
vn -0.0049 0.9999 0.0062
vn 0.9213 -0.3849 0.0557
vn 0.7740 -0.6309 0.0523
vn 0.9857 -0.1422 0.0902
vn 0.9752 -0.2211 0.0119
vn 0.9358 0.3467 0.0633
vn 0.5003 0.8638 0.0588
vn 0.7088 0.6976 0.1048
vn 0.4303 -0.8981 0.0902
vn 0.9845 0.1282 0.1198
vn 0.9962 0.0110 0.0860
vn 0.9988 -0.0248 0.0418
vn 0.9633 -0.0286 0.2669
vn 0.9526 -0.1456 0.2669
vn 0.9564 -0.2265 0.1845
vn 0.9401 0.3187 0.1206
vn 0.8407 0.5152 0.1666
vn 0.9034 0.3243 0.2805
vn 0.9527 0.2439 0.1813
vn 0.4992 0.8438 0.1969
vn 0.6961 -0.7069 0.1251
vn 0.9551 -0.2789 0.0995
vn 0.8820 -0.4446 0.1561
vn 0.9865 -0.0465 0.1570
vn 0.9665 0.1044 0.2344
vn 0.0472 -0.9875 0.1505
vn 0.5112 -0.8341 0.2069
vn 0.7906 -0.5192 0.3244
vn 0.7483 -0.6200 0.2355
vn 0.9124 -0.2984 0.2803
vn 0.9733 0.0743 0.2173
vn 0.9651 0.1746 0.1952
vn 0.3508 0.8624 0.3649
vn 0.6759 0.6919 0.2539
vn 0.6790 0.6275 0.3811
vn 0.9646 -0.1649 0.2057
vn 0.9174 0.3581 0.1733
vn 0.2201 0.9653 0.1401
vn 0.0366 0.9625 0.2686
vn -0.2550 0.8725 0.4168
vn 0.0702 0.8345 0.5465
vn 0.6822 0.7215 0.1181
vn 0.2016 -0.9320 0.3011
vn -0.1804 -0.9552 0.2345
vn 0.8575 -0.4873 0.1647
vn 0.4530 -0.7902 0.4129
vn 0.3215 -0.9469 -0.0054
vn 0.0719 -0.8363 0.5435
vn -0.2070 -0.9003 0.3828
vn -0.6575 0.6179 0.4310
vn -0.3150 0.9491 -0.0023
vn -0.2679 0.9537 0.1368
vn -0.4937 0.8408 0.2221
vn -0.8632 0.4430 0.2420
vn -0.9147 0.2911 0.2802
vn -0.6788 0.7234 0.1257
vn -0.3784 -0.9203 0.0990
vn -0.5813 -0.7969 0.1641
vn -0.9167 -0.2773 0.2877
vn -0.9156 -0.3539 0.1910
vn -0.8012 -0.5052 0.3206
vn -0.8302 -0.5267 0.1826
vn -0.6419 -0.7236 0.2535
vn -0.9638 0.1673 0.2076
vn -0.9576 0.0765 0.2776
vn -0.9691 -0.1187 0.2162
vn -0.9559 -0.0945 0.2781
vn -0.6077 -0.7939 0.0183
vn -0.9717 -0.1492 0.1830
vn -0.9672 -0.2364 0.0929
vn -0.9211 -0.3804 0.0826
vn -0.9856 0.0160 0.1680
vn -0.9642 0.2046 0.1686
vn -0.9831 0.1725 0.0617
vn -0.9943 0.0496 0.0944
vn -0.8185 -0.5697 0.0740
vn -0.9919 -0.0967 0.0819
vn -0.9398 0.3206 0.1181
vn -0.6921 0.6727 0.2617
vn -0.8756 0.4709 0.1076
vn -0.5835 0.8105 0.0503
vn -0.9994 0.0226 0.0265
vn -0.9932 -0.1156 -0.0128
vn -0.9534 0.3011 0.0191
vn -0.8557 0.5156 0.0429
vn -0.9713 -0.2375 0.0106
vn -0.9093 -0.4158 -0.0173
vn -0.9988 0.0240 -0.0425
vn -0.9854 -0.1272 -0.1126
vn -0.9860 0.1647 -0.0252
vn -0.9507 0.3071 -0.0425
vn -0.8772 0.4772 -0.0530
vn -0.9409 0.3229 -0.1020
vn -0.4913 0.8682 -0.0700
vn -0.7539 0.6565 -0.0230
vn -0.3909 -0.9158 -0.0922
vn -0.7489 -0.6611 -0.0460
vn -0.9201 -0.3742 -0.1157
vn -0.8148 -0.5637 -0.1354
vn -0.5591 -0.8138 -0.1583
vn -0.9662 -0.2476 -0.0709
vn -0.9337 -0.2971 -0.1997
vn -0.8370 -0.4882 -0.2469
vn -0.5477 0.8111 -0.2052
vn -0.7376 0.6650 -0.1172
vn -0.9746 -0.0983 -0.2010
vn -0.9342 -0.2120 -0.2868
vn -0.9754 0.1835 -0.1222
vn -0.8873 0.4071 -0.2166
vn -0.8094 0.5569 -0.1859
vn -0.9276 0.0620 -0.3684
vn -0.7657 0.3967 -0.5061
vn -0.7085 0.2034 -0.6758
vn -0.8674 -0.1558 -0.4726
vn -0.4760 0.8063 -0.3510
vn -0.5869 -0.7444 -0.3184
vn -0.9316 0.2423 -0.2710
vn -0.7874 0.5073 -0.3502
vn -0.3948 0.7456 -0.5368
vn -0.5160 -0.4606 -0.7222
vn -0.7131 -0.5243 -0.4653
vn -0.2784 0.5627 -0.7783
vn -0.2190 -0.8508 -0.4776
vn -0.0790 0.1097 -0.9908
vn -0.6312 -0.1459 -0.7618
vn 0.5368 -0.7600 -0.3663
vn -0.0624 -0.9905 -0.1223
vn 0.9642 -0.2582 0.0605
vn 0.6015 -0.7940 -0.0877
vn 0.2951 -0.8280 0.4768
vn -0.4851 -0.8667 -0.1164
vn -0.9301 -0.3261 0.1689
vn -0.9399 -0.3414 -0.0073
vn -0.9824 -0.0806 0.1686
vn 0.9815 -0.0183 0.1905
vn 0.9718 -0.0240 0.2346
vn 0.4701 0.7780 -0.4167
vn 0.0611 0.9902 -0.1252
vn -0.5298 0.7676 -0.3606
vn -0.5325 0.8442 -0.0609
vn -0.2834 0.8408 0.4611
vn 0.6619 0.7395 -0.1225
vn 0.7006 -0.0094 0.7134
vn 0.8260 0.1778 0.5348
vn 0.9829 0.0825 0.1642
vn 0.7295 0.5544 0.4004
vn -0.4079 0.4190 0.8112
vn 0.4077 -0.4196 0.8110
vn 0.0496 -0.1868 0.9811
vn -0.7358 -0.5359 0.4139
vn -0.5538 0.0081 0.8325
vn -0.9813 0.0179 0.1916
vn -0.8262 -0.1795 0.5339
vn -0.0427 0.1840 0.9820
vn -0.9628 0.2638 0.0586
vn -0.8609 0.4793 0.1706
vn -0.4840 -0.7727 -0.4107
vn -0.9721 0.0179 0.2339
vn 0.3735 0.4471 -0.8127
vn 0.9460 0.2514 -0.2047
vn -0.7117 -0.6947 0.1036
vn -0.4423 -0.7668 0.4651
vn -0.9955 0.0450 -0.0837
vn -0.9697 0.0657 -0.2353
vn -0.9876 0.0432 -0.1507
usemtl None
s 1
f 20//1 3//2 4//3
f 5//4 147//5 14//6
f 183//7 12//8 6//9
f 1//10 183//7 6//9
f 7//11 197//12 17//13
f 17//13 2//14 7//11
f 8//15 155//16 151//17
f 8//15 20//1 155//16
f 18//18 9//19 5//4
f 12//8 183//7 10//20
f 10//20 14//6 11//21
f 28//22 18//18 13//23
f 22//24 20//1 8//15
f 22//24 186//25 20//1
f 10//20 199//26 19//27
f 15//28 1//10 2//14
f 2//14 17//13 24//29
f 197//12 3//2 21//30
f 20//1 21//30 3//2
f 43//31 9//19 18//18
f 18//18 28//22 43//31
f 185//32 27//33 19//27
f 19//27 23//34 185//32
f 29//35 24//29 25//36
f 186//25 36//37 21//30
f 23//34 199//26 29//35
f 16//38 21//30 26//39
f 31//40 26//39 41//41
f 41//41 25//36 31//40
f 185//32 34//42 33//43
f 30//44 25//36 35//45
f 35//45 25//36 41//41
f 35//45 48//46 50//47
f 50//47 40//48 35//45
f 38//49 28//22 200//50
f 40//48 45//51 39//52
f 42//53 26//39 37//54
f 41//41 26//39 42//53
f 22//24 198//55 186//25
f 43//31 28//22 38//49
f 200//50 187//56 44//57
f 45//51 202//58 49//59
f 48//46 42//53 47//60
f 56//61 36//37 186//25
f 186//25 198//55 56//61
f 56//61 62//62 36//37
f 57//63 9//19 43//31
f 43//31 38//49 44//57
f 43//31 44//57 57//63
f 33//43 49//59 187//56
f 50//47 201//64 51//65
f 51//65 46//66 50//47
f 53//67 70//68 60//69
f 54//70 63//71 203//72
f 203//72 55//73 54//70
f 56//61 67//74 62//62
f 57//63 44//57 64//75
f 59//76 60//69 58//77
f 52//78 51//65 201//64
f 201//64 55//73 61//79
f 64//75 44//57 58//77
f 79//80 9//19 57//63
f 57//63 64//75 68//81
f 57//63 68//81 79//80
f 65//82 69//83 58//77
f 58//77 204//84 65//82
f 178//85 53//67 61//79
f 203//72 83//86 178//85
f 67//74 73//87 66//88
f 73//87 71//89 66//88
f 70//68 53//67 165//90
f 165//90 204//84 70//68
f 71//89 205//91 203//72
f 78//92 67//74 56//61
f 56//61 198//55 78//92
f 78//92 86//93 67//74
f 86//93 87//94 73//87
f 87//94 77//95 73//87
f 76//96 71//89 77//95
f 79//80 68//81 74//97
f 79//80 74//97 82//98
f 65//82 216//99 75//100
f 75//100 166//101 80//102
f 82//98 74//97 81//103
f 89//104 164//105 77//95
f 77//95 87//94 89//104
f 91//106 86//93 78//92
f 78//92 198//55 91//106
f 91//106 95//107 86//93
f 88//108 90//109 89//104
f 91//106 103//110 95//107
f 92//111 82//98 98//112
f 100//113 101//114 93//115
f 93//115 105//116 97//117
f 85//118 90//109 94//119
f 98//112 81//103 97//117
f 100//113 72//120 99//121
f 112//122 9//19 92//111
f 92//111 98//112 112//122
f 107//123 116//124 101//114
f 101//114 209//125 105//116
f 102//126 94//119 109//127
f 109//127 188//128 117//129
f 117//129 102//126 109//127
f 98//112 97//117 106//130
f 106//130 97//117 105//116
f 107//123 100//113 99//121
f 113//131 116//124 107//123
f 109//127 88//108 108//132
f 88//108 96//133 104//134
f 111//135 103//110 91//106
f 91//106 198//55 111//135
f 114//136 120//137 113//131
f 188//128 108//132 115//138
f 104//134 110//139 115//138
f 116//124 124//140 209//125
f 209//125 119//141 106//130
f 126//142 212//143 120//137
f 210//144 115//138 121//145
f 121//145 129//146 122//147
f 130//148 128//149 111//135
f 111//135 198//55 130//148
f 131//150 9//19 112//122
f 112//122 118//151 131//150
f 125//152 136//153 119//141
f 131//150 118//151 137//154
f 123//155 132//156 125//152
f 123//155 212//143 132//156
f 132//156 214//157 125//152
f 125//152 214//157 136//153
f 130//148 142//158 134//159
f 137//154 118//151 136//153
f 138//160 213//161 212//143
f 211//162 122//147 146//163
f 122//147 129//146 135//164
f 139//165 141//166 153//167
f 153//167 144//168 139//165
f 155//16 143//169 142//158
f 137//154 136//153 215//170
f 138//160 139//165 213//161
f 189//171 146//163 145//172
f 145//172 143//169 150//173
f 151//17 142//158 130//148
f 130//148 8//15 151//17
f 151//17 155//16 142//158
f 5//4 9//19 131//150
f 131//150 137//154 5//4
f 149//174 152//175 144//168
f 141//166 145//172 150//173
f 150//173 4//3 7//11
f 7//11 195//176 150//173
f 5//4 137//154 147//5
f 152//175 149//174 12//8
f 12//8 11//21 196//177
f 153//167 141//166 195//176
f 153//167 195//176 154//178
f 154//178 148//179 153//167
f 155//16 4//3 143//169
f 156//180 168//181 166//101
f 216//99 161//182 156//180
f 157//183 161//182 191//184
f 156//180 161//182 157//183
f 191//184 181//185 157//183
f 72//120 208//186 193//187
f 193//187 158//188 72//120
f 161//182 216//99 165//90
f 160//189 161//182 159//190
f 162//191 206//192 190//193
f 177//194 192//195 163//196
f 172//197 160//189 169//198
f 169//198 179//199 207//200
f 207//200 192//195 175//201
f 171//202 161//182 160//189
f 160//189 172//197 171//202
f 171//202 172//197 174//203
f 219//204 191//184 171//202
f 176//205 218//206 173//207
f 173//207 158//188 219//204
f 175//201 176//205 170//208
f 175//201 194//209 218//206
f 218//206 176//205 175//201
f 190//193 206//192 164//105
f 217//210 194//209 190//193
f 177//194 194//209 192//195
f 190//193 194//209 177//194
f 83//86 205//91 163//196
f 83//86 179//199 178//85
f 163//196 179//199 83//86
f 180//211 168//181 156//180
f 156//180 181//185 180//211
f 181//185 219//204 193//187
f 194//209 217//210 85//118
f 218//206 194//209 182//212
f 1//10 154//178 184//213
f 184//213 154//178 195//176
f 1//10 184//213 2//14
f 155//16 20//1 4//3
f 3//2 197//12 4//3
f 14//6 147//5 196//177
f 14//6 13//23 5//4
f 6//9 154//178 1//10
f 1//10 15//28 183//7
f 184//213 195//176 7//11
f 7//11 4//3 197//12
f 7//11 2//14 184//213
f 11//21 14//6 196//177
f 11//21 12//8 10//20
f 18//18 5//4 13//23
f 13//23 14//6 27//33
f 15//28 199//26 183//7
f 15//28 29//35 199//26
f 16//38 17//13 197//12
f 16//38 197//12 21//30
f 16//38 32//214 17//13
f 8//15 198//55 22//24
f 10//20 19//27 14//6
f 19//27 27//33 14//6
f 10//20 183//7 199//26
f 24//29 17//13 32//214
f 39//52 23//34 29//35 30//44
f 20//1 186//25 21//30
f 19//27 199//26 23//34
f 23//34 34//42 185//32
f 24//29 32//214 25//36
f 25//36 30//44 29//35
f 21//30 36//37 26//39
f 28//22 13//23 27//33
f 27//33 185//32 28//22
f 49//59 34//42 39//52 45//51
f 23//34 39//52 34//42
f 31//40 32//214 16//38
f 31//40 16//38 26//39
f 31//40 25//36 32//214
f 33//43 200//50 185//32
f 34//42 49//59 33//43
f 40//48 30//44 35//45
f 35//45 41//41 48//46
f 36//37 37//54 26//39
f 28//22 185//32 200//50
f 39//52 30//44 40//48
f 202//58 45//51 46//66 51//65
f 42//53 48//46 41//41
f 44//57 38//49 200//50
f 187//56 58//77 44//57
f 45//51 40//48 46//66
f 52//78 201//64 61//79 53//67
f 47//60 42//53 37//54
f 47//60 37//54 63//71
f 47//60 54//70 48//46
f 54//70 201//64 48//46
f 33//43 187//56 200//50
f 49//59 59//76 187//56
f 49//59 202//58 59//76
f 187//56 59//76 58//77
f 46//66 40//48 50//47
f 50//47 48//46 201//64
f 36//37 62//62 37//54
f 37//54 62//62 63//71
f 52//78 60//69 202//58
f 202//58 51//65 52//78
f 52//78 53//67 60//69
f 60//69 70//68 204//84
f 55//73 201//64 54//70
f 54//70 47//60 63//71
f 59//76 202//58 60//69
f 60//69 204//84 58//77
f 61//79 55//73 203//72
f 208//186 100//113 93//115 167//215
f 15//28 2//14 24//29 29//35
f 62//62 67//74 66//88
f 62//62 66//88 63//71
f 64//75 58//77 69//83
f 65//82 204//84 216//99
f 178//85 61//79 203//72
f 203//72 205//91 83//86
f 178//85 159//190 53//67
f 68//81 64//75 69//83
f 68//81 69//83 75//100
f 69//83 65//82 75//100
f 165//90 216//99 204//84
f 203//72 63//71 71//89
f 71//89 63//71 66//88
f 73//87 67//74 86//93
f 74//97 68//81 75//100
f 74//97 75//100 81//103
f 75//100 80//102 81//103
f 76//96 77//95 206//192
f 76//96 205//91 71//89
f 77//95 71//89 73//87
f 75//100 216//99 166//101
f 166//101 168//181 80//102
f 81//103 80//102 84//216
f 81//103 98//112 82//98
f 164//105 206//192 77//95
f 89//104 87//94 96//133
f 89//104 217//210 164//105
f 79//80 82//98 92//111
f 80//102 168//181 84//216
f 85//118 94//119 182//212
f 86//93 95//107 87//94
f 87//94 95//107 96//133
f 89//104 90//109 217//210
f 88//108 89//104 96//133
f 9//19 79//80 92//111
f 93//115 84//216 167//215
f 93//115 97//117 84//216
f 94//119 99//121 72//120 182//212
f 93//115 101//114 105//116
f 85//118 217//210 90//109
f 95//107 103//110 96//133
f 81//103 84//216 97//117
f 100//113 208//186 72//120
f 102//126 107//123 99//121 94//119
f 101//114 100//113 107//123
f 101//114 116//124 209//125
f 109//127 94//119 90//109
f 103//110 104//134 96//133
f 103//110 111//135 110//139
f 103//110 110//139 104//134
f 105//116 209//125 106//130
f 106//130 112//122 98//112
f 124//140 116//124 113//131 120//137
f 107//123 102//126 113//131
f 102//126 117//129 113//131
f 109//127 90//109 88//108
f 108//132 88//108 104//134
f 108//132 188//128 109//127
f 111//135 128//149 110//139
f 110//139 128//149 129//146
f 106//130 118//151 112//122
f 113//131 117//129 114//136
f 210//144 121//145 122//147 211//162
f 115//138 108//132 104//134
f 115//138 110//139 129//146
f 115//138 210//144 188//128
f 209//125 124//140 119//141
f 114//136 117//129 188//128
f 114//136 188//128 210//144
f 118//151 106//130 119//141
f 118//151 119//141 136//153
f 120//137 123//155 124//140
f 120//137 114//136 126//142
f 126//142 127//217 212//143
f 120//137 212//143 123//155
f 121//145 115//138 129//146
f 211//162 127//217 126//142 210//144
f 119//141 124//140 123//155
f 119//141 123//155 125//152
f 126//142 114//136 210//144
f 189//171 140//218 133//219 211//162
f 128//149 130//148 134//159
f 128//149 134//159 129//146
f 130//148 198//55 8//15
f 133//219 127//217 211//162
f 135//164 143//169 145//172 146//163
f 134//159 135//164 129//146
f 134//159 142//158 135//164
f 212//143 133//219 138//160
f 212//143 127//217 133//219
f 133//219 140//218 138//160
f 212//143 213//161 132//156
f 146//163 122//147 135//164
f 146//163 189//171 211//162
f 214//157 132//156 152//175
f 132//156 213//161 152//175
f 214//157 152//175 215//170
f 139//165 140//218 189//171
f 139//165 189//171 141//166
f 142//158 143//169 135//164
f 136//153 214//157 215//170
f 215//170 147//5 137//154
f 213//161 139//165 144//168
f 138//160 140//218 139//165
f 213//161 144//168 152//175
f 218//206 182//212 72//120 158//188
f 145//172 141//166 189//171
f 147//5 215//170 196//177
f 148//179 149//174 144//168
f 148//179 154//178 6//9
f 148//179 6//9 149//174
f 149//174 6//9 12//8
f 195//176 141//166 150//173
f 150//173 143//169 4//3
f 152//175 196//177 215//170
f 152//175 12//8 196//177
f 148//179 144//168 153//167
f 166//101 216//99 156//180
f 157//183 181//185 156//180
f 193//187 219//204 158//188
f 76//96 162//191 163//196 205//91
f 159//190 161//182 165//90
f 163//196 162//191 190//193 177//194
f 162//191 76//96 206//192
f 163//196 192//195 207//200
f 175//201 170//208 169//198 207//200
f 165//90 53//67 159//190
f 167//215 84//216 168//181
f 169//198 160//189 179//199
f 171//202 174//203 173//207 219//204
f 169//198 170//208 172//197
f 170//208 176//205 172//197
f 171//202 191//184 161//182
f 172//197 176//205 174//203
f 160//189 159//190 178//85 179//199
f 173//207 174//203 176//205
f 173//207 218//206 158//188
f 175//201 192//195 194//209
f 164//105 217//210 190//193
f 163//196 207//200 179//199
f 167//215 180//211 193//187 208//186
f 180//211 167//215 168//181
f 181//185 191//184 219//204
f 180//211 181//185 193//187
f 182//212 194//209 85//118
