# Blender v2.78 (sub 0) OBJ File: 'tree.blend'
# www.blender.org
mtllib tree.mtl
o Trunk_Cylinder.003
v -0.000000 1.058820 -0.349968
v 0.303081 1.058820 -0.174984
v 0.303081 1.058820 0.174984
v -0.000000 1.058820 0.349968
v -0.303081 1.058820 0.174984
v -0.303081 1.058820 -0.174984
v -0.000000 -0.040595 -0.414300
v 0.358794 -0.040595 -0.207150
v 0.358794 -0.040595 0.207150
v -0.000000 -0.040595 0.414300
v -0.358795 -0.040595 0.207150
v -0.358795 -0.040595 -0.207150
vn -0.4994 0.0506 -0.8649
vn 0.0000 -1.0000 0.0000
vn -0.4994 0.0506 0.8649
vn 0.9987 0.0506 0.0000
vn -0.9987 0.0506 0.0000
vn 0.4994 0.0506 0.8649
vn 0.4994 0.0506 -0.8649
usemtl Material.002
s off
f 6//1 1//1 7//1 12//1
f 7//2 8//2 9//2 10//2 11//2 12//2
f 4//3 5//3 11//3 10//3
f 2//4 3//4 9//4 8//4
f 5//5 6//5 12//5 11//5
f 3//6 4//6 10//6 9//6
f 1//7 2//7 8//7 7//7
o Tree_Cylinder.002
v 0.000000 1.058820 -1.000000
v -0.000000 7.513783 -0.043527
v 0.866025 1.058820 -0.500000
v 0.037695 7.513783 -0.021763
v 0.866025 1.058820 0.500000
v 0.037695 7.513783 0.021763
v -0.000000 1.058820 1.000000
v -0.000000 7.513783 0.043527
v -0.866025 1.058820 0.500000
v -0.037695 7.513783 0.021763
v -0.866025 1.058820 -0.500000
v -0.037695 7.513783 -0.021763
v -0.000000 6.806390 -0.148346
v 0.128471 6.806390 -0.074173
v 0.128471 6.806390 0.074173
v -0.000000 6.806390 0.148346
v -0.128471 6.806390 0.074173
v -0.128471 6.806390 -0.074173
v 0.223367 6.066890 -0.128961
v 0.223367 6.066890 0.128961
v -0.000000 6.066890 0.257922
v -0.223367 6.066890 0.128961
v -0.223367 6.066890 -0.128961
v -0.000000 6.066890 -0.257922
v 0.327548 5.255034 -0.189110
v 0.327548 5.255034 0.189110
v -0.000000 5.255034 0.378220
v -0.327548 5.255034 0.189110
v -0.327548 5.255034 -0.189110
v -0.000000 5.255034 -0.378220
v 0.477271 4.088282 -0.275553
v 0.477271 4.088282 0.275553
v -0.000000 4.088282 0.551105
v -0.477271 4.088282 0.275552
v -0.477271 4.088282 -0.275552
v -0.000000 4.088282 -0.551105
v 0.656266 2.693422 -0.378895
v 0.656266 2.693422 0.378895
v -0.000000 2.693422 0.757791
v -0.656266 2.693422 0.378895
v -0.656266 2.693422 -0.378895
v -0.000000 2.693422 -0.757791
v -0.000000 6.634758 -0.306323
v 0.265283 6.634758 -0.153161
v 0.265283 6.634758 0.153161
v -0.000000 6.634758 0.306323
v -0.265283 6.634758 0.153161
v -0.265283 6.634758 -0.153161
v -0.000000 5.876396 -0.546095
v 0.472932 5.876396 -0.273047
v 0.472932 5.876396 0.273047
v -0.000000 5.876396 0.546095
v -0.472932 5.876396 0.273047
v -0.472932 5.876396 -0.273047
v -0.000000 4.977952 -0.828092
v 0.717149 4.977952 -0.414046
v 0.717149 4.977952 0.414046
v -0.000000 4.977952 0.828092
v -0.717149 4.977952 0.414046
v -0.717149 4.977952 -0.414046
v -0.000000 3.806278 -1.218229
v 1.055017 3.806279 -0.609114
v 1.055017 3.806279 0.609114
v -0.000000 3.806279 1.218229
v -1.055017 3.806279 0.609114
v -1.055017 3.806279 -0.609114
v 0.000000 2.285563 -1.766177
v 1.529554 2.285563 -0.883088
v 1.529554 2.285563 0.883088
v -0.000000 2.285563 1.766177
v -1.529554 2.285563 0.883088
v -1.529554 2.285563 -0.883088
v 1.852332 0.656128 -1.069445
v 1.852332 0.656128 1.069445
v -0.000000 0.656128 2.138889
v -1.852332 0.656128 1.069444
v -1.852332 0.656128 -1.069444
v 0.000000 0.656128 -2.138889
v 0.000000 1.058820 -1.000000
v 0.866025 1.058820 -0.500000
v 0.866025 1.058820 0.500000
v -0.000000 1.058820 1.000000
v -0.866025 1.058820 0.500000
v -0.866025 1.058820 -0.500000
v -0.000000 1.058820 -0.349968
v 0.303081 1.058820 -0.174984
v 0.303081 1.058820 0.174984
v -0.000000 1.058820 0.349968
v -0.303081 1.058820 0.174984
v -0.303081 1.058820 -0.174984
vn 0.4840 0.2506 -0.8384
vn 0.9681 0.2506 0.0000
vn 0.4840 0.2506 0.8384
vn -0.4840 0.2506 0.8384
vn 0.0000 1.0000 0.0000
vn -0.9681 0.2506 0.0000
vn -0.4840 0.2506 -0.8384
vn 0.0000 -1.0000 0.0000
vn -0.4689 0.3473 -0.8121
vn -0.9377 0.3473 0.0000
vn -0.4689 0.3473 0.8121
vn 0.4689 0.3473 0.8121
vn 0.9377 0.3473 0.0000
vn 0.4689 0.3473 -0.8121
vn 0.4554 0.4130 -0.7887
vn 0.9107 0.4130 0.0000
vn 0.4554 0.4130 0.7887
vn -0.4554 0.4130 0.7887
vn -0.9107 0.4130 0.0000
vn -0.4554 0.4130 -0.7887
vn -0.4468 0.4487 -0.7739
vn -0.8937 0.4487 0.0000
vn -0.4468 0.4487 0.7739
vn 0.4468 0.4487 0.7739
vn 0.8937 0.4487 0.0000
vn 0.4468 0.4487 -0.7739
vn 0.4318 0.5041 -0.7479
vn 0.8636 0.5041 0.0000
vn 0.4318 0.5041 0.7479
vn -0.4318 0.5041 0.7479
vn -0.8636 0.5041 0.0000
vn -0.4318 0.5041 -0.7479
vn -0.4312 0.5063 -0.7468
vn -0.8624 0.5063 0.0000
vn -0.4312 0.5063 0.7468
vn 0.4312 0.5063 0.7468
vn 0.8624 0.5063 0.0000
vn 0.4312 0.5063 -0.7468
vn 0.3910 -0.6233 0.6772
vn 0.7820 -0.6233 0.0000
vn 0.3910 -0.6233 -0.6772
vn -0.3910 -0.6233 -0.6772
vn -0.7820 -0.6233 0.0000
vn -0.3910 -0.6233 0.6772
vn -0.3034 -0.7949 0.5255
vn -0.6067 -0.7949 -0.0000
vn -0.3034 -0.7949 -0.5255
vn 0.3034 -0.7949 -0.5255
vn 0.6067 -0.7949 0.0000
vn 0.3034 -0.7949 0.5255
vn 0.2898 -0.8149 0.5019
vn 0.5796 -0.8149 0.0000
vn 0.2898 -0.8149 -0.5019
vn -0.2898 -0.8149 -0.5019
vn -0.5796 -0.8149 -0.0000
vn -0.2898 -0.8149 0.5019
vn -0.2193 -0.8987 0.3799
vn -0.4386 -0.8987 0.0000
vn -0.2193 -0.8987 -0.3799
vn 0.2193 -0.8987 -0.3799
vn 0.4386 -0.8987 0.0000
vn 0.2193 -0.8987 0.3799
vn 0.2116 -0.9061 0.3665
vn 0.4232 -0.9061 0.0000
vn 0.2116 -0.9061 -0.3665
vn -0.2116 -0.9061 -0.3665
vn -0.4232 -0.9061 -0.0000
vn -0.2116 -0.9061 0.3665
vn -0.1890 -0.9258 0.3274
vn -0.3780 -0.9258 -0.0000
vn -0.1890 -0.9258 -0.3274
vn 0.1890 -0.9258 -0.3274
vn 0.3780 -0.9258 0.0000
vn 0.1890 -0.9258 0.3274
usemtl Material.001
s off
f 55//8 14//8 16//8 56//8
f 56//9 16//9 18//9 57//9
f 57//10 18//10 20//10 58//10
f 58//11 20//11 22//11 59//11
f 16//12 14//12 24//12 22//12 20//12 18//12
f 59//13 22//13 24//13 60//13
f 60//14 24//14 14//14 55//14
f 13//15 15//15 17//15 19//15 21//15 23//15
f 66//16 30//16 25//16 61//16
f 65//17 29//17 30//17 66//17
f 64//18 28//18 29//18 65//18
f 63//19 27//19 28//19 64//19
f 62//20 26//20 27//20 63//20
f 61//21 25//21 26//21 62//21
f 67//22 36//22 31//22 68//22
f 68//23 31//23 32//23 69//23
f 69//24 32//24 33//24 70//24
f 70//25 33//25 34//25 71//25
f 71//26 34//26 35//26 72//26
f 72//27 35//27 36//27 67//27
f 78//28 41//28 42//28 73//28
f 77//29 40//29 41//29 78//29
f 76//30 39//30 40//30 77//30
f 75//31 38//31 39//31 76//31
f 74//32 37//32 38//32 75//32
f 73//33 42//33 37//33 74//33
f 79//34 48//34 43//34 80//34
f 80//35 43//35 44//35 81//35
f 81//36 44//36 45//36 82//36
f 82//37 45//37 46//37 83//37
f 83//38 46//38 47//38 84//38
f 84//39 47//39 48//39 79//39
f 89//40 53//40 54//40 90//40
f 88//41 52//41 53//41 89//41
f 87//42 51//42 52//42 88//42
f 86//43 50//43 51//43 87//43
f 85//44 49//44 50//44 86//44
f 90//45 54//45 49//45 85//45
f 30//46 60//46 55//46 25//46
f 29//47 59//47 60//47 30//47
f 28//48 58//48 59//48 29//48
f 27//49 57//49 58//49 28//49
f 26//50 56//50 57//50 27//50
f 25//51 55//51 56//51 26//51
f 36//52 61//52 62//52 31//52
f 31//53 62//53 63//53 32//53
f 32//54 63//54 64//54 33//54
f 33//55 64//55 65//55 34//55
f 34//56 65//56 66//56 35//56
f 35//57 66//57 61//57 36//57
f 41//58 72//58 67//58 42//58
f 40//59 71//59 72//59 41//59
f 39//60 70//60 71//60 40//60
f 38//61 69//61 70//61 39//61
f 37//62 68//62 69//62 38//62
f 42//63 67//63 68//63 37//63
f 48//64 73//64 74//64 43//64
f 43//65 74//65 75//65 44//65
f 44//66 75//66 76//66 45//66
f 45//67 76//67 77//67 46//67
f 46//68 77//68 78//68 47//68
f 47//69 78//69 73//69 48//69
f 53//70 84//70 79//70 54//70
f 52//71 83//71 84//71 53//71
f 51//72 82//72 83//72 52//72
f 50//73 81//73 82//73 51//73
f 49//74 80//74 81//74 50//74
f 54//75 79//75 80//75 49//75
f 13//76 90//76 85//76 15//76
f 15//77 85//77 86//77 17//77
f 17//78 86//78 87//78 19//78
f 19//79 87//79 88//79 21//79
f 21//80 88//80 89//80 23//80
f 23//81 89//81 90//81 13//81
f 91//12 96//12 95//12 94//12 93//12 92//12
f 95//15 96//15 102//15 101//15
f 93//15 94//15 100//15 99//15
f 91//15 92//15 98//15 97//15
f 96//15 91//15 97//15 102//15
f 94//15 95//15 101//15 100//15
f 92//15 93//15 99//15 98//15
